<?xml version="1.0" standalone="no"?>
<!DOCTYPE svg PUBLIC "-//W3C//DTD SVG 20010904//EN"
 "http://www.w3.org/TR/2001/REC-SVG-20010904/DTD/svg10.dtd">
<svg version="1.0" xmlns="http://www.w3.org/2000/svg"
 width="256.000000pt" height="256.000000pt" viewBox="0 0 256.000000 256.000000"
 preserveAspectRatio="xMidYMid meet">

<g transform="translate(0.000000,256.000000) scale(0.100000,-0.100000)"
fill="#000000" stroke="none">
<path d="M182 2279 c-66 -13 -104 -39 -139 -98 -56 -93 -55 -199 2 -298 64
-109 129 -167 398 -354 144 -100 345 -241 447 -313 238 -168 311 -206 390
-206 81 0 150 38 440 241 129 91 323 225 430 299 282 194 370 291 402 440 29
141 -48 265 -183 290 -64 12 -2125 12 -2187 -1z"/>
<path d="M0 1044 c0 -656 -2 -631 70 -701 75 -73 -21 -68 1210 -68 1231 0
1135 -5 1210 68 72 70 70 45 70 700 l0 588 -62 -53 c-35 -30 -148 -112 -253
-183 -104 -71 -297 -205 -428 -297 -275 -194 -298 -208 -392 -244 -97 -36
-193 -36 -290 0 -95 36 -122 54 -378 235 -122 86 -301 210 -397 276 -196 133
-280 194 -327 239 l-33 30 0 -590z"/>
</g>
</svg>
