<?xml version="1.0" standalone="no"?>
<!DOCTYPE svg PUBLIC "-//W3C//DTD SVG 20010904//EN"
 "http://www.w3.org/TR/2001/REC-SVG-20010904/DTD/svg10.dtd">
<svg version="1.0" xmlns="http://www.w3.org/2000/svg"
 width="256.000000pt" height="264.000000pt" viewBox="0 0 256.000000 264.000000"
 preserveAspectRatio="xMidYMid meet">

<g transform="translate(0.000000,264.000000) scale(0.100000,-0.100000)"
fill="#000000" stroke="none">
<path d="M1106 2590 c-247 -31 -475 -127 -657 -276 -454 -371 -580 -1038 -299
-1583 110 -213 284 -396 492 -518 89 -52 214 -103 253 -103 61 0 65 12 65 200
l0 169 -107 -1 c-195 -2 -264 35 -338 182 -42 84 -69 117 -150 187 -32 27 -36
35 -25 48 16 19 45 19 105 -1 53 -18 117 -77 175 -159 49 -69 113 -100 200
-99 36 1 82 8 104 15 35 13 40 20 56 71 9 31 27 70 39 87 l22 30 -23 5 c-13 3
-45 8 -73 11 -151 19 -266 66 -341 140 -94 93 -140 242 -132 428 4 112 28 181
88 256 26 34 28 42 20 72 -16 55 -11 208 8 264 14 41 22 51 43 53 41 5 145
-34 242 -90 l88 -50 87 18 c119 25 354 25 473 0 l86 -17 99 55 c99 56 216 95
247 83 9 -3 22 -25 29 -49 14 -48 17 -226 5 -274 -7 -27 -3 -37 29 -75 20 -24
49 -69 63 -99 24 -51 26 -65 26 -185 -1 -96 -5 -146 -19 -190 -61 -201 -182
-296 -426 -334 -41 -6 -90 -14 -109 -17 l-33 -5 20 -22 c61 -67 74 -154 70
-450 -3 -217 -2 -229 16 -243 39 -28 98 -14 237 55 295 148 528 422 633 745
46 140 60 238 60 416 0 182 -13 270 -66 420 -142 408 -509 721 -950 810 -115
24 -326 33 -432 20z"/>
<path d="M450 856 c0 -9 7 -16 16 -16 17 0 14 22 -4 28 -7 2 -12 -3 -12 -12z"/>
<path d="M500 805 c0 -8 9 -15 20 -15 13 0 18 5 14 15 -4 8 -12 15 -20 15 -8
0 -14 -7 -14 -15z"/>
<path d="M554 746 c-9 -24 12 -44 28 -28 10 10 8 16 -5 29 -15 15 -17 15 -23
-1z"/>
<path d="M610 665 c0 -18 24 -30 40 -20 8 5 8 11 -1 21 -15 19 -39 18 -39 -1z"/>
<path d="M707 623 c-16 -15 -6 -33 18 -33 27 0 32 9 13 28 -14 14 -22 15 -31
5z"/>
<path d="M904 609 c-3 -6 -2 -15 3 -20 13 -13 43 -1 43 17 0 16 -36 19 -46 3z"/>
<path d="M804 599 c-9 -15 12 -33 30 -26 9 4 16 13 16 22 0 17 -35 21 -46 4z"/>
</g>
</svg>
