<?xml version="1.0" standalone="no"?>
<!DOCTYPE svg PUBLIC "-//W3C//DTD SVG 20010904//EN"
 "http://www.w3.org/TR/2001/REC-SVG-20010904/DTD/svg10.dtd">
<svg version="1.0" xmlns="http://www.w3.org/2000/svg"
 width="256.000000pt" height="293.000000pt" viewBox="0 0 256.000000 293.000000"
 preserveAspectRatio="xMidYMid meet">

<g transform="translate(0.000000,293.000000) scale(0.100000,-0.100000)"
fill="#000000" stroke="none">
<path d="M126 2735 c-51 -18 -104 -70 -116 -115 -14 -49 -13 -2262 0 -2312 13
-45 75 -103 127 -117 52 -15 2233 -15 2285 -1 50 14 97 55 119 105 18 38 19
95 19 1170 0 1075 -1 1132 -19 1170 -22 50 -69 91 -119 105 -24 6 -413 10
-1147 10 -918 -1 -1117 -3 -1149 -15z m525 -366 c161 -49 202 -273 69 -380
-141 -113 -354 -10 -353 170 0 151 138 253 284 210z m1294 -599 c79 -31 154
-102 189 -180 53 -119 58 -161 63 -617 l5 -423 -191 0 -191 0 0 323 c-1 355
-8 449 -42 510 -33 60 -78 82 -163 82 -127 0 -192 -61 -215 -201 -6 -33 -10
-206 -10 -386 l0 -328 -190 0 -190 0 0 610 0 610 185 0 185 0 0 -82 0 -81 29
40 c45 62 115 110 206 140 65 21 256 11 330 -17z m-1175 -610 l0 -610 -190 0
-190 0 0 610 0 610 190 0 190 0 0 -610z"/>
</g>
</svg>
